<svg xmlns="http://www.w3.org/2000/svg" xmlns:xlink="http://www.w3.org/1999/xlink" width="2500" height="1331" viewBox="0 0 2500 1331"><defs><style>.a,.e,.g,.i,.j,.l,.m{fill:url(#a);}.b{fill:url(#b);}.c{opacity:0.42;clip-path:url(#c);}.d{opacity:0.201;}.e{opacity:0.7;}.f,.h,.k,.o{fill:none;}.f{stroke:#a3a0fb;}.f,.g,.h,.i,.j,.k,.m{stroke-width:2px;}.g{stroke:#a4a1fb;}.h{stroke:rgba(255,255,255,0.49);}.i{stroke:#55d8fe;}.j{stroke:rgba(255,255,255,0.45);}.k{stroke:#fff;}.m{stroke:rgba(255,255,255,0.64);}.n,.p{stroke:none;}.p{fill:rgba(255,255,255,0.51);}</style><linearGradient id="a" x1="0.5" x2="0.5" y2="1" gradientUnits="objectBoundingBox"><stop offset="0" stop-color="#fff"/><stop offset="1" stop-color="#fff" stop-opacity="0"/></linearGradient><linearGradient id="b" x1="0.897" y1="0.14" x2="0.206" y2="0.877" gradientUnits="objectBoundingBox"><stop offset="0" stop-color="#8cadee"/><stop offset="1" stop-color="#a28fe2"/></linearGradient><clipPath id="c"><rect class="a" width="2500" height="1331"/></clipPath></defs><rect class="b" width="2500" height="1331"/><g class="c"><g class="d" transform="translate(-911.189 394.113)"><path class="e" d="M330,944.323V641.7S842.731,840.2,1252.4,852.662C1695.39,840.581,1772.1,755.634,2117.15,641.7c294.863-94.961,588.92-121.023,871.161-114.313s526.872,109.292,860.266,119.8c588.143-42.353,888.217-256.484,927.954-345.919V1056.87L330,1057.205Z" transform="translate(-330 -297.748)"/><path class="f" d="M313,589.989s509.42,203.223,912.2,207.6,557.494-104.871,866-207.329,601.791-119.943,871.8-116.5,532.5,110.812,864.267,116.51,868.491-185.593,928.174-345.03" transform="translate(-308.919 -245.24)"/><g class="g" transform="translate(1762.74 329.428)"><circle class="n" cx="10.885" cy="10.885" r="10.885"/><circle class="o" cx="10.885" cy="10.885" r="9.885"/></g><g class="g" transform="translate(1173.582 517.689)"><circle class="n" cx="10.885" cy="10.885" r="10.885"/><circle class="o" cx="10.885" cy="10.885" r="9.885"/></g></g><g class="d" transform="translate(-1122.262 717.301)"><path class="e" d="M330,944.323V641.7S842.731,840.2,1252.4,852.662C1695.39,840.581,1772.1,755.634,2117.15,641.7c294.863-94.961,588.92-121.023,871.161-114.313s526.872,109.292,860.266,119.8c588.143-42.353,888.217-256.484,927.954-345.919V1056.87L330,1057.205Z" transform="translate(-330 -297.748)"/><path class="f" d="M313,589.989s509.42,203.223,912.2,207.6,557.494-104.871,866-207.329,601.791-119.943,871.8-116.5,532.5,110.812,864.267,116.51,868.491-185.593,928.174-345.03" transform="translate(-308.919 -245.24)"/><g class="g" transform="translate(1762.74 329.428)"><circle class="n" cx="10.885" cy="10.885" r="10.885"/><circle class="o" cx="10.885" cy="10.885" r="9.885"/></g></g><g class="d" transform="translate(-1170.538 425.047)"><path class="e" d="M330,816.531V354.422s500.436,459.433,911.522,476.723C1700.193,827.251,1703.952,592.636,2107,464.2c337.424-100.848,594.9,174.246,877.136,180.956s477.029-188.538,862.092-202.1c498.9,20.428,899.222,281.287,930.287,295.313V929.078L330,929.413Z" transform="translate(-327.244 -354.422)"/><path class="h" d="M312.953,279.164s516.011,467.9,919.3,472.275c98.413,1.068,180.862-6.952,253.676-32.737,148.986-52.759,258.375-155.377,388.3-234.329,66.3-40.288,138.042-76.483,223.051-100.677,332.056-94.507,604.682,177.737,875.029,181.182s529.187-206.238,861.361-200.539,711.956,164.312,921.915,289.431" transform="translate(-312.953 -275.25)"/><g class="i" transform="translate(3490.678 71.448)"><circle class="n" cx="10.885" cy="10.885" r="10.885"/><circle class="o" cx="10.885" cy="10.885" r="9.885"/></g><g class="j" transform="translate(1896.564 70.301)"><circle class="n" cx="10.885" cy="10.885" r="10.885"/><circle class="o" cx="10.885" cy="10.885" r="9.885"/></g></g><g class="d" transform="translate(-1673.662 578.092)"><path class="e" d="M330,816.531V354.422s500.436,459.433,911.522,476.723C1700.193,827.251,1703.952,592.636,2107,464.2c337.424-100.848,594.9,174.246,877.136,180.956s477.029-188.538,862.092-202.1c498.9,20.428,899.222,281.287,930.287,295.313V929.078L330,929.413Z" transform="translate(-328.906 -354.422)"/><path class="k" d="M312.953,279.164s516.011,467.9,919.3,472.275,540.71-273.964,864.516-368.382,607.7,179.672,878.045,183.117,526.679-207.534,858.853-201.836,711.956,164.312,921.915,289.431" transform="translate(-312.953 -275.25)"/><g class="l" transform="translate(2803.794 252.9)"><path class="n" d="M10.885,0A10.885,10.885,0,1,1,0,10.885,10.885,10.885,0,0,1,10.885,0Z"/><path class="p" d="M 10.88517570495605 1.999996185302734 C 5.985876083374023 1.999996185302734 1.999996185302734 5.985876083374023 1.999996185302734 10.88517570495605 C 1.999996185302734 15.78447532653809 5.985876083374023 19.77035522460938 10.88517570495605 19.77035522460938 C 15.78447532653809 19.77035522460938 19.77035522460938 15.78447532653809 19.77035522460938 10.88517570495605 C 19.77035522460938 5.985876083374023 15.78447532653809 1.999996185302734 10.88517570495605 1.999996185302734 M 10.88517570495605 -3.814697265625e-06 C 16.89688491821289 -3.814697265625e-06 21.77035522460938 4.873455047607422 21.77035522460938 10.88517570495605 C 21.77035522460938 16.89688491821289 16.89688491821289 21.77035522460938 10.88517570495605 21.77035522460938 C 4.873455047607422 21.77035522460938 -3.814697265625e-06 16.89688491821289 -3.814697265625e-06 10.88517570495605 C -3.814697265625e-06 4.873455047607422 4.873455047607422 -3.814697265625e-06 10.88517570495605 -3.814697265625e-06 Z"/></g><g class="m" transform="translate(1759.721 88.471)"><circle class="n" cx="10.885" cy="10.885" r="10.885"/><circle class="o" cx="10.885" cy="10.885" r="9.885"/></g></g></g></svg>