<svg xmlns="http://www.w3.org/2000/svg" width="23.881" height="24.615" viewBox="0 0 23.881 24.615"><path d="M13.94,2C7.356,2,2,6.822,2,12.746,2,19.026,8.018,24.1,15.134,23.437v2.444c.024-.008,0,1.194,1.194.539l.645-.413c1.352-.867,8.128-5.526,8.839-12.119a9.746,9.746,0,0,0,.068-1.14C25.881,6.822,20.524,2,13.94,2ZM9.761,13.94H8.567a.6.6,0,0,1-.6-.6V12.149a.6.6,0,0,1,.6-.6H9.761a.6.6,0,0,1,.6.6v1.194A.6.6,0,0,1,9.761,13.94Zm4.776,0H13.343a.6.6,0,0,1-.6-.6V12.149a.6.6,0,0,1,.6-.6h1.194a.6.6,0,0,1,.6.6v1.194A.6.6,0,0,1,14.537,13.94Zm4.776,0H18.119a.6.6,0,0,1-.6-.6V12.149a.6.6,0,0,1,.6-.6h1.194a.6.6,0,0,1,.6.6v1.194A.6.6,0,0,1,19.314,13.94Z" transform="translate(-2 -2)" /></svg>