<svg xmlns="http://www.w3.org/2000/svg" width="31" height="31" viewBox="0 0 31 31"><path d="M18.5,3A15.5,15.5,0,1,0,34,18.5,15.5,15.5,0,0,0,18.5,3ZM9.458,27.724c1.507-4.521,6.028-2.756,6.781-5.205V20.886a4.31,4.31,0,0,1-1.41-2.409c-.267-.023-.686-.288-.81-1.336a.991.991,0,0,1,.356-.978,5.194,5.194,0,0,1-.4-1.807c0-2.676,1.327-4.9,4.522-4.9a2.378,2.378,0,0,1,2.26,1.223c1.542,0,2.26,1.691,2.26,3.673a4.6,4.6,0,0,1-.4,1.807.988.988,0,0,1,.358.978c-.124,1.048-.542,1.312-.81,1.336a4.3,4.3,0,0,1-1.41,2.409v1.633c.753,2.45,5.274.686,6.781,5.207a12.915,12.915,0,0,1-18.083,0Z" transform="translate(-3 -3)"/></svg>